REM DIRINDEX 1\2,1\3,1\4,1\5\6,1\5\7,1\8
REM DIRNAME folder01,folder02,folder03,folder04,folder05,folder06,folder07,folder08
TITLE ""
FILE "004 Åy004ÅzUnit1 (0037 address_0048 resource).mp3" MP3
  TRACK 01 AUDIO
    TITLE "0:"
    INDEX 01 00:00:00
  TRACK 02 AUDIO
    TITLE "2:cjc115_0110"
    INDEX 01 00:00:05
  TRACK 03 AUDIO
    TITLE "0:"
    INDEX 01 00:01:26
  TRACK 04 AUDIO
    TITLE "3:cjc115_0111"
    INDEX 01 00:01:36
  TRACK 05 AUDIO
    TITLE "0:"
    INDEX 01 00:03:35
  TRACK 06 AUDIO
    TITLE "4:cjc115_0112"
    INDEX 01 00:03:41
  TRACK 07 AUDIO
    TITLE "0:"
    INDEX 01 00:07:56
  TRACK 08 AUDIO
    TITLE "2:cjc115_0113"
    INDEX 01 00:08:68
  TRACK 09 AUDIO
    TITLE "0:"
    INDEX 01 00:10:27
  TRACK 10 AUDIO
    TITLE "3:cjc115_0114"
    INDEX 01 00:10:37
  TRACK 11 AUDIO
    TITLE "0:"
    INDEX 01 00:11:39
  TRACK 12 AUDIO
    TITLE "4:cjc115_0115"
    INDEX 01 00:11:54
  TRACK 13 AUDIO
    TITLE "0:"
    INDEX 01 00:16:16
  TRACK 14 AUDIO
    TITLE "2:cjc115_0116"
    INDEX 01 00:17:23
  TRACK 15 AUDIO
    TITLE "0:"
    INDEX 01 00:18:31
  TRACK 16 AUDIO
    TITLE "3:cjc115_0117"
    INDEX 01 00:18:42
  TRACK 17 AUDIO
    TITLE "0:"
    INDEX 01 00:21:02
  TRACK 18 AUDIO
    TITLE "4:cjc115_0118"
    INDEX 01 00:21:11
  TRACK 19 AUDIO
    TITLE "0:"
    INDEX 01 00:25:23
  TRACK 20 AUDIO
    TITLE "2:cjc115_0119"
    INDEX 01 00:26:32
  TRACK 21 AUDIO
    TITLE "0:"
    INDEX 01 00:27:61
  TRACK 22 AUDIO
    TITLE "3:cjc115_0120"
    INDEX 01 00:27:71
  TRACK 23 AUDIO
    TITLE "0:"
    INDEX 01 00:30:30
  TRACK 24 AUDIO
    TITLE "4:cjc115_0121"
    INDEX 01 00:30:38
  TRACK 25 AUDIO
    TITLE "0:"
    INDEX 01 00:33:48
  TRACK 26 AUDIO
    TITLE "2:cjc115_0122"
    INDEX 01 00:34:59
  TRACK 27 AUDIO
    TITLE "0:"
    INDEX 01 00:36:17
  TRACK 28 AUDIO
    TITLE "3:cjc115_0123"
    INDEX 01 00:36:19
  TRACK 29 AUDIO
    TITLE "0:"
    INDEX 01 00:38:67
  TRACK 30 AUDIO
    TITLE "4:cjc115_0124"
    INDEX 01 00:39:02
  TRACK 31 AUDIO
    TITLE "0:"
    INDEX 01 00:42:66
  TRACK 32 AUDIO
    TITLE "2:cjc115_0125"
    INDEX 01 00:43:74
  TRACK 33 AUDIO
    TITLE "0:"
    INDEX 01 00:45:20
  TRACK 34 AUDIO
    TITLE "3:cjc115_0126"
    INDEX 01 00:45:28
  TRACK 35 AUDIO
    TITLE "0:"
    INDEX 01 00:48:49
  TRACK 36 AUDIO
    TITLE "4:cjc115_0127"
    INDEX 01 00:48:57
  TRACK 37 AUDIO
    TITLE "0:"
    INDEX 01 00:54:25
  TRACK 38 AUDIO
    TITLE "2:cjc115_0128"
    INDEX 01 00:55:36
  TRACK 39 AUDIO
    TITLE "0:"
    INDEX 01 00:56:65
  TRACK 40 AUDIO
    TITLE "3:cjc115_0129"
    INDEX 01 00:56:74
  TRACK 41 AUDIO
    TITLE "0:"
    INDEX 01 00:58:07
  TRACK 42 AUDIO
    TITLE "4:cjc115_0130"
    INDEX 01 00:58:17
  TRACK 43 AUDIO
    TITLE "0:"
    INDEX 01 01:02:14
  TRACK 44 AUDIO
    TITLE "2:cjc115_0131"
    INDEX 01 01:03:22
  TRACK 45 AUDIO
    TITLE "0:"
    INDEX 01 01:04:43
  TRACK 46 AUDIO
    TITLE "3:cjc115_0132"
    INDEX 01 01:04:52
  TRACK 47 AUDIO
    TITLE "0:"
    INDEX 01 01:07:21
  TRACK 48 AUDIO
    TITLE "4:cjc115_0133"
    INDEX 01 01:07:29
  TRACK 49 AUDIO
    TITLE "0:"
    INDEX 01 01:12:03
  TRACK 50 AUDIO
    TITLE "2:cjc115_0134"
    INDEX 01 01:13:14
  TRACK 51 AUDIO
    TITLE "0:"
    INDEX 01 01:14:31
  TRACK 52 AUDIO
    TITLE "3:cjc115_0135"
    INDEX 01 01:14:43
  TRACK 53 AUDIO
    TITLE "0:"
    INDEX 01 01:17:06
  TRACK 54 AUDIO
    TITLE "4:cjc115_0136"
    INDEX 01 01:17:12
  TRACK 55 AUDIO
    TITLE "0:"
    INDEX 01 01:20:48
  TRACK 56 AUDIO
    TITLE "2:cjc115_0137"
    INDEX 01 01:21:55
  TRACK 57 AUDIO
    TITLE "0:"
    INDEX 01 01:23:15
  TRACK 58 AUDIO
    TITLE "3:cjc115_0138"
    INDEX 01 01:23:22
  TRACK 59 AUDIO
    TITLE "0:"
    INDEX 01 01:24:14
  TRACK 60 AUDIO
    TITLE "4:cjc115_0139"
    INDEX 01 01:24:22
  TRACK 61 AUDIO
    TITLE "0:"
    INDEX 01 01:29:05
  TRACK 62 AUDIO
    TITLE "2:cjc115_0140"
    INDEX 01 01:30:15
  TRACK 63 AUDIO
    TITLE "0:"
    INDEX 01 01:31:28
  TRACK 64 AUDIO
    TITLE "3:cjc115_0141"
    INDEX 01 01:31:36
  TRACK 65 AUDIO
    TITLE "0:"
    INDEX 01 01:34:42
  TRACK 66 AUDIO
    TITLE "4:cjc115_0142"
    INDEX 01 01:34:50
  TRACK 67 AUDIO
    TITLE "0:"
    INDEX 01 01:40:21
  TRACK 68 AUDIO
    TITLE "2:cjc115_0143"
    INDEX 01 01:41:28
  TRACK 69 AUDIO
    TITLE "0:"
    INDEX 01 01:42:51
  TRACK 70 AUDIO
    TITLE "3:cjc115_0144"
    INDEX 01 01:42:59
  TRACK 71 AUDIO
    TITLE "0:"
    INDEX 01 01:43:60
  TRACK 72 AUDIO
    TITLE "4:cjc115_0145"
    INDEX 01 01:43:70
  TRACK 73 AUDIO
    TITLE "0:"
    INDEX 01 01:47:35
